<svg xmlns="http://www.w3.org/2000/svg" style="display: none;">
  <symbol id="icon-tg" viewBox="0 0 24 24">
    <path fill="currentColor" d="M12 2C6.48 2 2 6.48 2 12s4.48 10 10 10 10-4.48 10-10S17.52 2 12 2zm4.64 6.8c-.15 1.58-.8 5.42-1.13 7.19-.14.75-.42 1-.68 1.03-.58.05-1.02-.38-1.58-.75-.88-.58-1.38-.94-2.23-1.5-.99-.65-.35-1.01.22-1.6.15-.15 2.71-2.48 2.76-2.69a.2.2 0 00-.05-.18c-.06-.05-.14-.03-.21-.02-.09.02-1.49.95-4.22 2.79-.4.27-.76.4-1.08.39-.35-.01-1.02-.2-1.52-.35-.62-.19-1.1-.29-1.06-.61.02-.16.24-.32.65-.49 2.56-1.11 4.26-1.85 5.1-2.2 2.4-.99 2.9-1.17 3.23-1.17.07 0 .23.01.33.09.09.08.11.18.12.25v.03z"/>
  </symbol>
  <symbol id="icon-menu" viewBox="0 0 24 24">
    <path stroke="currentColor" stroke-linecap="round" stroke-width="2" d="M4 6h16M4 12h16M4 18h16"/>
  </symbol>
  <symbol id="icon-logo" viewBox="0 0 24 24">
    <circle cx="12" cy="12" r="10" stroke="currentColor" stroke-width="2" fill="none"/>
    <path fill="currentColor" d="M11 7h2v10h-2zM7 11h10v2H7z"/>
  </symbol>
</svg>